<svg xmlns="http://www.w3.org/2000/svg" viewBox="0 0 760 260" role="img" aria-labelledby="title desc">
  <title id="title">Kasan agent control room</title>
  <desc id="desc">A hand-drawn phone sends a note to kasan, which wakes Claude and Codex beside a repository.</desc>
  <defs>
    <filter id="wobble" x="-8%" y="-12%" width="116%" height="124%">
      <feTurbulence type="fractalNoise" baseFrequency="0.012" numOctaves="2" seed="7" result="noise"/>
      <feDisplacementMap in="SourceGraphic" in2="noise" scale="1.6" xChannelSelector="R" yChannelSelector="G"/>
    </filter>
    <style>
      :root{--ink:#111;--surface:#fff;--arrow:#fff}
      .ink{fill:none;stroke:var(--ink);stroke-width:4;stroke-linecap:round;stroke-linejoin:round}
      .thin{fill:none;stroke:var(--ink);stroke-width:2.3;stroke-linecap:round;stroke-linejoin:round;opacity:.72}
      .paper,.pink,.blue,.yellow{fill:var(--surface);stroke:var(--ink);stroke-width:4;stroke-linejoin:round}
      .arrow-outline,.arrow{fill:none;stroke-linecap:round;stroke-linejoin:round}
      .arrow-outline{stroke:var(--ink);stroke-width:7}
      .arrow{stroke:var(--arrow);stroke-width:3}
      text{font-family:"Comic Sans MS","Bradley Hand",cursive;fill:var(--ink);text-anchor:middle}
      .solid{fill:var(--ink)}
      .screen-button{fill:var(--surface);stroke:var(--ink)}
      @media (prefers-color-scheme:dark){
        :root{--ink:#f3eee4;--surface:#242327;--arrow:#242327}
      }
    </style>
  </defs>
  <g filter="url(#wobble)">
    <g class="arrow-outline">
      <path d="M150 126 C210 92 230 98 287 119"/>
      <path d="M474 118 C526 87 562 82 615 103"/>
      <path d="M475 139 C532 166 561 172 618 151"/>
      <path d="M274 114 l14 6 -13 8"/>
      <path d="M604 96 l13 7 -13 8"/>
      <path d="M605 144 l13 7 -14 7"/>
    </g>
    <g class="arrow">
      <path d="M150 126 C210 92 230 98 287 119"/>
      <path d="M474 118 C526 87 562 82 615 103"/>
      <path d="M475 139 C532 166 561 172 618 151"/>
      <path d="M274 114 l14 6 -13 8"/>
      <path d="M604 96 l13 7 -13 8"/>
      <path d="M605 144 l13 7 -14 7"/>
    </g>

    <rect class="paper" x="42" y="62" width="104" height="150" rx="17"/>
    <path class="thin" d="M72 82 h44"/>
    <rect class="yellow" x="59" y="104" width="72" height="55" rx="8"/>
    <path class="thin" d="M73 121 h43 M73 134 h32 M73 147 h38"/>
    <circle class="screen-button" cx="94" cy="188" r="7" stroke-width="3"/>
    <text x="94" y="239" font-size="20">you</text>

    <path class="pink" d="M292 67 Q375 48 466 68 L474 171 Q383 189 286 170 Z"/>
    <path class="thin" d="M309 89 q65 -13 142 1 M310 148 q64 13 144 -1"/>
    <circle class="solid" cx="343" cy="119" r="6"/>
    <circle class="solid" cx="414" cy="119" r="6"/>
    <path class="ink" d="M359 132 q20 16 40 0"/>
    <text x="380" y="218" font-size="25">kasan</text>

    <path class="blue" d="M624 48 l83 9 7 62 -88 5 z"/>
    <path class="thin" d="M640 72 h51 M641 87 h39"/>
    <text x="667" y="145" font-size="18">claude</text>

    <path class="yellow" d="M623 151 q43 -11 89 2 l-3 62 q-42 10 -85 -1 z"/>
    <path class="thin" d="M640 174 h54 M640 190 h36"/>
    <text x="667" y="239" font-size="18">codex</text>

    <g class="arrow-outline">
      <path d="M496 215 q42 15 83 -2"/>
      <path d="M575 205 l10 8 -12 5"/>
    </g>
    <g class="arrow">
      <path d="M496 215 q42 15 83 -2"/>
      <path d="M575 205 l10 8 -12 5"/>
    </g>
    <path class="paper" d="M500 190 h59 l12 12 v38 h-71 z"/>
    <path class="thin" d="M559 190 v13 h12 M513 216 h42 M513 228 h30"/>
    <text x="535" y="258" font-size="16">repo</text>
  </g>
</svg>
